<svg width="100mm" height="100mm" viewBox="0 0 100 100" xmlns="http://www.w3.org/2000/svg"><g fill="#fff"><path d="M52.69 11.776l-.034-.04-5.111-6.203a1.108 1.108 0 011.71-1.409l5.111 6.202a1.108 1.108 0 01-1.675 1.45M56.348 6.204a1.108 1.108 0 011.626-1.506l6.094 6.443c.407.453.401 1.145-.043 1.567-.445.42-1.146.4-1.567-.044l-6.094-6.442-.016-.018M46.117 16.21a1.109 1.109 0 011.577-1.554l6.31 5.883c.457.41.472 1.118.055 1.565a1.108 1.108 0 01-1.566.055l-6.31-5.883-.066-.066M36.234 20.007a1.12 1.12 0 01.06-1.57 1.095 1.095 0 011.556.052l.02.022 4.49 4.861.007.008a1.108 1.108 0 01-1.634 1.496l-4.491-4.862-.008-.007M28.208 23.882a1.108 1.108 0 011.632-1.5l2.645 2.836.01.011a1.107 1.107 0 01-1.632 1.5l-2.645-2.836-.01-.011M14.764 24.858a1.108 1.108 0 011.61-1.523l9.158 9.27a1.108 1.108 0 11-1.576 1.557l-9.158-9.27-.034-.034M14.776 37.93a1.108 1.108 0 011.594-1.538l6.165 6.004c.417.437.448 1.128.02 1.567a1.108 1.108 0 01-1.565.02l-6.166-6.003-.048-.05M3.528 38.045a1.108 1.108 0 011.605-1.527l8.038 8.043a1.108 1.108 0 01-1.568 1.567l-8.038-8.043-.037-.04M64.04 25.77a1.066 1.066 0 01-.082-.102l-4.21-5.902a1.108 1.108 0 01.26-1.546 1.103 1.103 0 011.544.259l4.21 5.902a1.108 1.108 0 01-1.722 1.39M69.372 23.56a1.108 1.108 0 011.602-1.533l3.352 3.32a1.11 1.11 0 01-1.56 1.576l-3.352-3.32-.042-.044M66.725 37.194a1.243 1.243 0 01-.08-.097l-6.03-8.36a1.108 1.108 0 01.25-1.547 1.114 1.114 0 011.547.25l6.031 8.36a1.108 1.108 0 01-1.718 1.394M57.879 37.361l-.032-.037-4.606-5.543a1.109 1.109 0 01.144-1.56c.47-.391 1.184-.29 1.56.144l4.606 5.543a1.107 1.107 0 01-1.672 1.454M45.265 35.334a1.108 1.108 0 011.606-1.526l3.916 3.928c.449.43.431 1.135-.003 1.567a1.108 1.108 0 01-1.567-.002l-3.915-3.928-.037-.04M40.303 40.594l-.044-.052-2.78-3.462a1.108 1.108 0 111.728-1.388l2.78 3.463a1.108 1.108 0 01-1.684 1.439M32.089 43.55a1.108 1.108 0 011.584-1.548l6.258 5.935a1.109 1.109 0 01-1.525 1.607l-6.258-5.934-.059-.06M29.535 51.48l-2.978-3.283a1.108 1.108 0 111.641-1.489l2.978 3.283a1.108 1.108 0 11-1.641 1.489M24.62 58.927l-.047-.056-6.388-8.033a1.109 1.109 0 01.177-1.556c.48-.38 1.168-.272 1.558.177l6.388 8.033a1.109 1.109 0 01-1.688 1.435M46.168 48.354a1.109 1.109 0 011.559-1.57l6.435 5.746c.453.414.497 1.108.09 1.563a1.108 1.108 0 01-1.565.089l-6.435-5.745-.084-.083M53.764 45.574a1.108 1.108 0 011.555-1.575l5.644 4.977a1.108 1.108 0 11-1.466 1.663l-5.644-4.977-.089-.088M80.16 45.214l-.054-.064-7.692-9.843a1.108 1.108 0 01.191-1.555c.483-.378 1.185-.307 1.555.19l7.692 9.845a1.107 1.107 0 01-1.693 1.427M69.578 42.825a1.108 1.108 0 011.603-1.53l3.738 3.716a1.108 1.108 0 01-1.563 1.572l-3.738-3.716-.04-.042M68.055 51.31a1.108 1.108 0 011.616-1.514l4.63 4.78c.423.414.413 1.14-.026 1.566a1.108 1.108 0 01-1.566-.026l-4.629-4.78-.025-.026M66.664 67.913l-.002-.002-6.862-7.613a1.108 1.108 0 011.643-1.487l.003.002 6.861 7.613a1.108 1.108 0 01-1.643 1.487M41.667 56.927a1.108 1.108 0 011.624-1.507l8.01 8.443a1.108 1.108 0 01-1.608 1.526l-8.01-8.443-.016-.019M32.04 64.167a1.108 1.108 0 011.608-1.525l4.302 4.324a1.108 1.108 0 11-1.571 1.563l-4.302-4.324-.036-.038M29.07 75.845l-.016-.017-7.098-8.148a1.109 1.109 0 01.108-1.564c.462-.402 1.124-.324 1.563.107l7.098 8.15a1.109 1.109 0 01-1.656 1.472M49.72 72.059a1.108 1.108 0 011.524-1.6l5.846 4.795a1.108 1.108 0 11-1.405 1.713l-5.846-4.794a1.21 1.21 0 01-.119-.114M41.815 73.994a1.108 1.108 0 011.603-1.53l3.544 3.518c.439.403.437 1.132.005 1.567a1.109 1.109 0 01-1.568.006l-3.544-3.519-.04-.042M66.943 76.635l-6.142-6.77a1.108 1.108 0 111.641-1.489l6.143 6.77a1.108 1.108 0 11-1.642 1.49M73.366 64.825a1.108 1.108 0 011.62-1.513l4.81 4.988c.4.455.41 1.142-.03 1.568a1.11 1.11 0 01-1.566-.029l-4.81-4.988-.024-.026M81.613 53.972a1.107 1.107 0 011.61-1.52l5.83 5.929c.458.448.422 1.138-.014 1.566a1.107 1.107 0 01-1.566-.013l-5.829-5.929-.031-.033M87.97 48.205a1.108 1.108 0 011.615-1.516l5.22 5.362c.471.427.418 1.14-.02 1.567a1.108 1.108 0 01-1.567-.021l-5.22-5.363-.027-.029M85.498 69.16a1.108 1.108 0 011.566-1.565l4.125 3.74c.444.414.487 1.112.077 1.564a1.108 1.108 0 01-1.566.077l-4.124-3.74-.078-.077M80.114 80.021l-4.281-4.718a1.108 1.108 0 111.64-1.49l4.281 4.72a1.108 1.108 0 11-1.64 1.488M65.647 84.574a1.118 1.118 0 01.063-1.57 1.098 1.098 0 011.558.06L72.7 88.98l.005.005a1.108 1.108 0 01-1.637 1.494l-5.417-5.902-.004-.004M57.25 86.176a1.108 1.108 0 011.601-1.53l4.338 4.288c.45.397.439 1.131.01 1.566-.431.435-1.133.44-1.568.009l-4.337-4.289-.043-.044M55.552 92.955l-.04-.048-5.771-7.11a1.108 1.108 0 01.161-1.558c.476-.387 1.18-.34 1.559.163l5.771 7.11a1.108 1.108 0 01-1.68 1.443M91.974 65.894a1.108 1.108 0 011.498-1.62l3.57 2.754a1.108 1.108 0 11-1.354 1.754l-3.569-2.754a1.14 1.14 0 01-.145-.134"/></g></svg>