<svg width="40mm" height="75mm" viewBox="0 0 40 75" xmlns="http://www.w3.org/2000/svg"><g><g fill="#fff"><path d="M13.584 51.953a8.586 8.586 0 014.004 2.07c1.364 1.26 2.056 2.472 1.852 3.246-2.968-3.003-7.143-4.862-11.36-5.061 1.713-.458 3.606-.654 5.504-.255zm4.7 6.626c-1.694.913-4.634.837-5.995.38-1.062-.355-2.057-.959-3.018-1.544l-4.456-2.709a49.11 49.11 0 007.868 2.811c1.829.482 3.969.928 6.114.708-.15.127-.315.247-.513.354zM3.91 54.006c2.47-.727 5.357-.519 8.81.633 1.454.484 2.779 1.328 4.06 2.144.64.408 1.3.828 1.976 1.204-2.1.211-4.207-.236-6.009-.712a48.903 48.903 0 01-8.837-3.27zm3.621-1.57c4.373.057 8.755 1.954 11.809 5.088-.058.13-.132.254-.223.371-.753-.403-1.49-.87-2.202-1.323-1.295-.825-2.633-1.676-4.116-2.17-3.198-1.067-5.923-1.334-8.29-.808a19.158 19.158 0 012.932-1.201.122.122 0 00.09.043zM30.67 40.661A24.998 24.998 0 0133.572 39a58.549 58.549 0 00-12.091 12.796c.107-.479.297-.991.522-1.434a25.7 25.7 0 018.666-9.703zm2.934 3.436c-1.488 2.19-3.112 4.479-5.15 6.291-1.367 1.215-3.47 2.737-5.728 3.089-.592.092-.985.01-1.169-.242a.776.776 0 01-.109-.226c1.177.092 2.365-.327 3.327-1.19 2.46-2.207 4.592-4.795 6.654-7.295 1.007-1.222 1.736-2.445 2.442-3.627.548-.917 1.115-1.858 1.808-2.8.52-.195 1.046-.373 1.576-.53-.859 2.334-2.217 4.422-3.651 6.53zm.993-5.567c.217-.093.436-.182.656-.268-.598.845-1.106 1.686-1.596 2.507-.701 1.174-1.426 2.389-2.42 3.595-2.056 2.495-4.182 5.074-6.629 7.268-.93.835-2.078 1.226-3.21 1.117a2.217 2.217 0 01-.004-.38A58.264 58.264 0 0134.596 38.53zm-23.1-17.74c.578 1.654 1.221 3.313 2.12 4.834.864 1.464 2.03 2.913 3.562 4.429a34.328 34.328 0 003.615 3.104 4.949 4.949 0 01-.996-.352c-4.623-2.11-7.793-6.967-8.3-12.016zm.077-3.416c.947 1.241 1.908 2.519 2.747 3.851.457.723.888 1.48 1.306 2.212.607 1.063 1.236 2.162 1.95 3.183.335.476.69.961 1.053 1.456 1.192 1.625 2.415 3.297 3.169 5.046l-.018.006a1.45 1.45 0 01-.48.084 34.022 34.022 0 01-3.946-3.337c-1.518-1.5-2.67-2.933-3.523-4.378-1.046-1.77-1.746-3.738-2.4-5.668-.027-.821.019-1.643.142-2.455zm3.312 2.044a480.052 480.052 0 006.662 11.712c.065.4.122.809.17 1.225-.765-1.53-1.837-2.997-2.887-4.427-.361-.493-.716-.976-1.048-1.45-.71-1.013-1.334-2.107-1.939-3.166-.419-.733-.852-1.492-1.312-2.22-.885-1.404-1.901-2.747-2.9-4.054.013-.073.023-.146.038-.22 1.089.836 2.18 1.69 3.216 2.6zm4.004 4.465c1.211 1.872 2.057 4.047 2.542 6.553a481.18 481.18 0 01-5.98-10.51c1.293 1.188 2.48 2.48 3.438 3.957zm5.445 4.18c.172-.403.333-.781.467-1.122a43.666 43.666 0 012.397-5.092 43.035 43.035 0 014.246-6.302c.042-.052.087-.1.134-.145-.353 1.44-1.104 2.78-1.837 4.083l-.137.244a110.344 110.344 0 00-6.593 13.982 2.093 2.093 0 01-.127-.643c-.084-1.398.767-3.399 1.45-5.005zm.081 5.147c-.41.628-.875.89-1.124.824-.04-.01-.075-.042-.11-.072a110.3 110.3 0 016.641-14.11l.138-.245c.784-1.397 1.592-2.846 1.92-4.43.034-.018.066-.037.095-.05a53.999 53.999 0 01-7.56 18.083zM8.751 58.27c1.009.612 2.052 1.247 3.22 1.638 1.5.502 4.78.632 6.787-.45a3.644 3.644 0 001.097-.875 31.84 31.84 0 001.493 8.249c.516 1.602 1.401 3.922 3.134 5.576a.5.5 0 10.69-.723c-1.21-1.155-2.095-2.746-2.872-5.16a30.838 30.838 0 01-.833-3.162c.082.121.188.234.326.336 2.491 1.834 5.332-5.924 5.444-7.433.005-.065.008-.135-.03-.188-.087-.117-.272-.04-.389.048-.872.647-5.193 4.051-5.538 6.261a30.784 30.784 0 01-.433-3.962c-.063-1.46-.02-2.928.087-4.394.339.323.925.593 1.945.434 2.498-.39 4.771-2.026 6.237-3.33 2.125-1.887 3.79-4.234 5.314-6.476.824-1.212 1.66-2.476 2.394-3.804a21.288 21.288 0 001.424-3.094c.153-.43.112-.774-.123-1.02-.23-.243-.567-.301-1-.177a25.302 25.302 0 00-7.01 3.265 26.657 26.657 0 00-8.644 9.403c.128-.917.265-1.83.402-2.735.278-1.848.566-3.758.77-5.647.227-2.104.31-4.062.259-5.893.05.02.095.033.134.044.739.196 1.588-.282 2.217-1.246a54.948 54.948 0 007.789-18.838.5.5 0 00-.067-.37.963.963 0 00-.773-.457c-.57-.033-1.182.392-1.535.827a44.302 44.302 0 00-6.796 11.658c-.131.332-.289.703-.457 1.097-.338.794-.713 1.68-1.009 2.563-.51-2.628-1.397-4.918-2.678-6.895-2.083-3.215-5.263-5.645-8.069-7.787a.5.5 0 00-.787.271c-1.797 6.903 2.021 14.93 8.51 17.89.703.321 1.604.647 2.493.43.108 2.018.033 4.213-.225 6.598a107.66 107.66 0 01-.547 4.151 8.469 8.469 0 01-.113-.272c-.465-1.194-.686-2.474-1.263-3.626-.96-1.92-2.81-3.278-4.802-4.08-1.991-.802-4.141-1.112-6.267-1.415l-5.342-.762c-.385.957.176 2.025.822 2.829 1.542 1.916 3.647 3.302 5.828 4.437a37.13 37.13 0 008.425 3.155c.7.168 1.487.431 2.207.462.167.007.295.006.397-.004l-.11.73c-.435 2.886-.878 5.844-1.018 8.817-.466-.753-1.109-1.421-1.6-1.875a9.617 9.617 0 00-4.476-2.315c-3.856-.811-7.648.61-10.15 1.944-.213.113-.651.347-.778.827-.096.373-.025.928.854 1.464l5.035 3.06"/><path d="M18.447 17.709c-.087-.434.17-1.263.676-1.755.18-.176.46-.37.769-.3.257.058.517.244.771.553.354.426.67 1.1.496 1.715-.165.586-.794 1.011-1.407.963-.609-.046-1.182-.563-1.305-1.176zm3.487.939c.08-.144.143-.296.188-.455.235-.838-.022-1.82-.689-2.623-.397-.482-.841-.782-1.32-.89-.583-.133-1.182.065-1.688.558-.711.694-1.124 1.842-.958 2.668.214 1.063 1.143 1.894 2.208 1.976.915.072 1.825-.448 2.26-1.234M26.108 14.647a1.174 1.174 0 01-.144-.429c-.072-.47.024-.854.261-1.08.256-.243.673-.32 1.17-.214.322.067.591.273.686.523.045.118.06.263.047.43-.045.517-.383.988-.823 1.152-.432.16-.98-.015-1.197-.382zm-1.132-.276c.046.299.139.564.272.789.464.779 1.52 1.133 2.404.805a2.264 2.264 0 001.176-1.039 2.43 2.43 0 00.296-.965c.026-.318-.01-.61-.108-.868-.216-.57-.758-1.01-1.414-1.148-.83-.174-1.563-.008-2.065.468-.487.461-.686 1.157-.56 1.958M21.117 10.236c.242-.123.483-.283.607-.525.159-.315.082-.71-.12-1-.2-.29-.507-.489-.821-.648-1.232-.623-1.718 1.31-1.013 2.068.11.117.243.216.396.267.314.103.657-.012.95-.162M23.46 3.101c.193.381.644.59 1.07.561.287-.02.581-.15.726-.399.059-.1.09-.214.105-.329.054-.416-.131-.864-.485-1.09-.776-.495-1.84.422-1.416 1.257"/><path d="M23.997 71.4c-1.737-1.895-3.772-8.033-3.778-11.394-.001-.758-.067-1.378-.146-1.378-.08 0-.865.327-1.746.727-1.809.82-4.377.951-6.234.316-1.465-.5-7.563-4.117-8.537-5.062-.61-.593-.619-.704-.092-1.23.318-.319 1.507-.926 2.64-1.35 4.88-1.826 9.139-1.249 12.163 1.649.942.903 1.767 1.642 1.832 1.642.064 0 .127-.786.138-1.746.01-.96.236-3.152.5-4.87.264-1.719.462-3.128.44-3.133-2.934-.561-7.458-2.051-10.037-3.306-3.534-1.72-7.206-4.76-7.649-6.335-.297-1.057.188-1.065 5.831-.1 6.687 1.143 9.48 2.886 10.722 6.69.35 1.076.733 2.121.85 2.322.362.623.778-2.013 1.03-6.522.24-4.27.234-4.32-.56-4.32-1.322 0-4.158-1.655-5.985-3.493-2.063-2.074-3.745-5.14-4.361-7.945-.438-1.994-.372-6.314.103-6.79.327-.326 5.496 3.966 7.027 5.834 1.545 1.885 2.974 4.662 3.596 6.988.408 1.527 1.046 2.362 1.046 1.37 0-1.028 3.744-8.694 5.61-11.485 2.154-3.223 3.401-4.48 4.046-4.082 1.266.782-3.578 13.669-7.024 18.685-.555.808-1.352 1.52-1.77 1.58-.683.1-.785.453-1.013 3.493-.139 1.86-.505 5.091-.815 7.181-.309 2.09-.486 3.876-.394 3.968.092.092.63-.62 1.194-1.583 1.372-2.342 5.76-6.628 8.346-8.153 3.006-1.773 6.527-3.137 6.967-2.697.526.526-.8 3.289-3.583 7.47-4.332 6.508-9.004 10.218-12.308 9.775l-1.462-.196.032 2.63c.018 1.446.142 3.438.276 4.426l.244 1.797 1.189-1.84c1.385-2.144 4.508-4.897 4.508-3.976 0 1.033-2.07 5.135-3.041 6.025-.651.597-1.175.787-1.706.618-.422-.134-.767-.082-.767.114 0 1.018 1.906 5.777 2.763 6.901 1.122 1.47 1.06 2.035-.085.785zM18.73 58.36c.413-.443.75-1.168.75-1.613 0-1.277-1.648-3.106-3.737-4.147-3.027-1.508-6.53-1.307-10.515.606l-1.571.754 1.939 1.396c1.066.768 3.096 1.998 4.511 2.733 2.386 1.24 2.766 1.328 5.223 1.207 2.15-.106 2.791-.282 3.4-.936zm6.799-5.712c2.169-1.088 5.43-4.383 7.866-7.948 2.256-3.302 4.267-6.977 3.977-7.266-.28-.281-4.671 1.697-6.845 3.085-4.2 2.68-9.209 9.059-9.209 11.728 0 1.777 1.233 1.894 4.211.4zm-.028-20.8c2.864-4.759 6.48-13.844 6.458-16.227-.008-.875-.069-.849-1.268.551-2.63 3.071-7.404 12.659-7.81 15.682-.419 3.12.74 3.118 2.62-.006zm-3.69.038c-.318-2.714-1.613-6.283-3.072-8.469-1.36-2.037-6.296-6.693-7.095-6.693-.193 0-.266 1.453-.17 3.4.13 2.614.387 3.882 1.115 5.487 1.64 3.615 6.068 7.653 8.393 7.653.928 0 .98-.086.83-1.378z"/></g></g></svg>