<svg width="120mm" height="130mm" viewBox="0 0 120 130" xmlns="http://www.w3.org/2000/svg"><g><path d="M31.111 24.581c.06 7.637-.948 15.302.68 22.89 4.443-7.842 2.624-15.4-.68-22.89zm25.55 35.836c.2 7.01 6.915 19.594 16.43 30.852-3.994-10.918-10.63-20.425-16.43-30.852zm-20.664-2.36c-2.806-4.803-10.161-7.402-14.821-10.014-5.728-3.21-11.474-6.387-17.206-9.588 7.826 10.722 18.792 17.809 32.027 19.602zm74.48 58.65c-4.993-13.828-10.822-26.25-18.117-37.983 1.453 14.464 6.61 27.2 18.117 37.983zM27.538 73.515c3.277 1.832 6.68 3.428 10.158 4.838 6.787 2.749 13.824 4.7 20.883 6.6-10.578-8.895-24.84-12.056-37.72-16.197 1.593.969 4.42 3.495 6.679 4.759zm46.109 26.675c-1.157-.158-2.16-1.037-3.238-1.488-1.484-.621-3.089-1.023-4.62-1.517-3.22-1.03-6.44-2.06-9.66-3.087-3.423-1.09-6.846-2.177-10.27-3.267-2.63-.836-5.906-2.445-8.559-2.59.873 0 2.311 1.437 3.142 2.047 1.592 1.164 3.199 2.293 4.895 3.305 2.742 1.637 5.62 3.066 8.612 4.188 5.902 2.215 12.9 3.637 19.138 2.226.187.06.373.123.56.183zm28.218 22.338c-2.763-.906-7.053-.303-9.971-.24-3.795.082-7.574.586-11.34 1.03-3.733.438-7.46.921-11.188 1.405-1.864.243-3.728.486-5.592.723-.36.046-2.929.063-3.108.395-.584 1.08.628.85 1.164.96 3.303.677 7.35.19 10.718.14 3.273-.045 6.546-.172 9.81-.444 6.341-.526 13.304-1.263 18.995-4.237.17.088.34.18.512.268zm-14.37-11.666c-7.981-1.457-16.037-2.04-24.119-2.748-7.533-.66-15.446-2.16-22.881-.487 15.39.92 31.149 4.734 47 3.235zm-72.382-89.24c1.519 4.083 4.499 7.388 7.58 10.375-.57-4.546-2.436-8.403-4.237-12.615-1.508-3.529-2.957-9.748-6.005-12.079.088-.085.439-.215.041-.077.72 4.738.937 9.87 2.621 14.396zM83.136 86.53c-2.85-4.607-5.877-9.1-8.98-13.537.832 5.604 4.076 10.33 7.165 14.923 1.75 2.604 3.544 5.176 5.338 7.75.914 1.313 3.808 4.206 3.929 5.486l-.376-.42c-2.192-4.917-4.233-9.609-7.076-14.202zm29.686 36.929c-1.95-.657-4.007-.865-6.052-.688-4.61.398-9.056 2.508-13.573 3.482-9.791 2.113-19.854 2.35-29.83 2.025-2.082-.071-5.163.324-7.12-.501-3.753-1.58 1.982-2.477 3.244-2.745a217.067 217.067 0 0115.266-2.685c10.712-1.47 21.555-2.025 32.354-1.393-5.034-3.052-9.934-7.027-15.898-7.888-6.12-.886-12.527-.219-18.703-.561-7.07-.392-14.126-1.288-21.156-2.117-6.123-.72-13.436-.518-19.03-3.132 7.963-3.782 17.736-1.697 26.245-1.034 9.79.762 19.569 1.637 29.35 2.505-3.522-2.703-6.921-6.223-11.565-6.583-4.388-.335-8.778.176-13.176-.335-9.405-1.097-16.891-5.662-24.803-10.53-2.061-1.267-4.71-2.46-6.464-4.107-1.906-1.789-.69-2.61 1.468-2.332 1.864.236 3.91 1.394 5.696 2.032 2.422.864 4.843 1.736 7.271 2.582 9.397 3.285 18.927 6.178 28.408 9.204-3.348-2.942-6.61-6.265-10.152-8.96-3.91-2.97-9.078-3.831-13.685-5.197-9.574-2.836-18.98-6.093-27.546-11.317-2.171-1.325-4.257-2.77-6.297-4.288-.71-.53-4.1-2.914-1.8-3.665 1.319-.43 4.305 1.336 5.69 1.804 2.255.762 4.523 1.483 6.79 2.205 9.036 2.878 18.133 5.81 26.306 10.729-3.181-3.91-6.361-7.82-9.543-11.729-2.553-3.135-4.963-7.377-8.997-8.672-4.178-1.342-8.506-1.817-12.623-3.484-4.31-1.745-8.22-4.273-11.714-7.334C7.61 45.62 4.228 41.96 1.513 38.05c-3.1-4.465 4.01-.683 5.523.169 4.375 2.462 8.744 4.937 13.112 7.411 3.924 2.223 7.791 4.786 12 6.412-2.335-4.402-4.605-8.848-6.983-13.226-2.291-4.218-5.793-7.14-8.543-10.976-2.777-3.873-3.744-8.127-4.413-12.764-.591-4.098-2.07-9.392-.799-13.351C14.004 4.77 15.54 8.588 17.3 12.18c1.616 3.301 3.23 6.627 4.557 10.057 1.29 3.335 2.27 6.803 2.475 10.387.226 3.946 2.505 6.902 4.455 10.27.68-4.018.704-8.193.77-12.261.062-3.89-.69-7.771.048-11.639 2.873 2.593 4.095 7.09 5.106 10.795 1.007 3.685 1.457 7.54.867 11.336-.35 2.246-1.185 4.192-1.95 6.31-.72 1.994-.305 2.954.858 4.657 3.245 4.755 6.698 9.385 10.04 14.073-2.045-4.935-3.842-10.028-4.598-15.339-.652-4.572-1.938-11.402.02-15.583 2.684 2.243 3.566 5.468 4.937 8.655a79.19 79.19 0 013.215 8.83c1.816 6.13 3.494 12.882 3.036 19.283-1.997-5.35-2.377-11.34-3.927-16.877-1.388-4.952-2.907-12.112-6.703-15.832.334 5.44.43 10.844 1.977 16.111 1.361 4.636 3.498 9 5.882 13.188.755 1.324 1.995 2.17 2.746 3.348.532.834.592 2.042 1.15 2.938 1.418 2.279 3.814 4.1 5.682 6.024 4.27 4.4 8.712 8.534 13.23 12.672-2.903-7.497-8.902-13.483-12.35-20.797-3.095-6.567-5.997-13.895-6.032-21.196 3.945 4.675 6.727 10.243 9.785 15.537 3.113 5.393 6.243 10.818 9.022 16.391 1.39 2.787 2.623 5.666 3.406 8.686.758 2.92.705 4.935 3.089 7.01 4.65 4.039 9.868 7.51 14.843 11.136-3.154-7.828-7.856-14.305-12.645-21.163-2.394-3.425-4.334-7.024-5.948-10.877-1.362-3.249-3.597-6.93-2.779-10.388 4.366 2.544 7.373 9.201 10.076 13.448 2.625 4.124 5.186 8.3 7.363 12.682 2.226 4.477 3.577 9.063 5.144 13.78 1.756 5.284 5.63 7.094 10.168 9.701 1.08.62 6.44 4.42 6.789 2.865.2-.893-3.624-4.689-4.305-5.536-3.026-3.764-6.15-7.26-8.499-11.518-4.241-7.694-8.181-18.5-7.188-27.347 4.1 1.204 6.3 7.91 8.077 11.335 2.32 4.473 4.367 9.108 6.455 13.698 2.074 4.55 4.036 9.169 5.489 13.963.616 2.032.74 5.563 2.214 7.2 1.4 1.552 4.634 2.321 6.48 3.136-1.947.47-4.923-1.17-7.004-1.87" fill="#fff"/></g></svg>