<svg width="155mm" height="100mm" viewBox="0 0 155 100" xmlns="http://www.w3.org/2000/svg"><g fill="#fff"><path d="M79.855 44.04c.582-.45 1.087-.932 1.602-1.453.553-.56 1.224-1.101 1.594-1.8 1.09-2.057-1.206-3.94-3.051-2.581-.628.462-1.073 1.224-1.538 1.848-.438.583-.844 1.156-1.2 1.794-.963 1.716 1.055 3.378 2.593 2.192M98.03 40.102c.903-.085 1.986-.62 2.678-1.2.772-.645.843-1.837.3-2.63-.579-.842-1.637-1.097-2.562-.676-.818.372-1.725 1.183-2.183 1.948-.35.58-.342 1.29.042 1.85.41.599 1.03.774 1.725.708M94.707 30.508c.406-.364.794-.728 1.171-1.122.43-.451.963-.895 1.249-1.45.441-.854.377-1.82-.388-2.471-.734-.62-1.771-.592-2.501.028-.854.722-1.46 1.966-1.99 2.937-.857 1.56 1.034 3.348 2.459 2.078M67.494 32.096c.695-.167 1.32-.464 1.968-.758 1.175-.532 1.404-2.16.579-3.077-.83-.917-2.473-.853-3.122.261-.357.615-.716 1.207-.953 1.882-.324.923.575 1.921 1.528 1.692M54.974 51.625c.18.094.352.242.613.39.413.233.79.308 1.256.379.833.127 1.528.167 2.329-.172 1.485-.627 1.248-3.017-.272-3.431-.833-.226-1.528-.075-2.321.163-.424.126-.787.252-1.14.518-.137.102-.247.227-.367.344-.37.365.141-.096-.236.167-.53.37-.413 1.355.138 1.642M71.914 69.704c1.09.387 2.215.956 3.39.754 1.697-.292 2.082-2.691.656-3.578-.998-.62-2.296-.504-3.432-.554a1.737 1.737 0 00-1.778 1.423c-.155.86.342 1.664 1.164 1.955M83.612 56.43c.24-.27-.547.235-.557.238l-.3.017c.155.006.14-.002-.042-.026a.585.585 0 01-.293-.096c-.156-.085-.19-.098-.103-.038.152.045.304.406-.148-.122.667.777 1.86.861 2.674.303a2.06 2.06 0 00.685-2.6c-.988-2.066-4.318-1.882-4.929.386-.208.768.043 1.706.77 2.127.656.379 1.69.43 2.243-.188M56.716 71.529c.664-.39 1.323-.756 1.898-1.275.741-.67.861-1.962.138-2.697-.73-.736-1.905-.854-2.699-.137-.571.518-1.005 1.14-1.46 1.76-.946 1.287.744 3.16 2.123 2.349M39.582 57.153c1.944-1.755-.78-4.777-2.727-3.02-1.94 1.755.783 4.777 2.727 3.02M49.791 36.232c2.286-2.063-.917-5.615-3.203-3.55-2.286 2.063.917 5.616 3.203 3.55M88.943 12.717c1.245-.535 2.18-1.253 2.956-2.364.695-.998-.321-2.4-1.478-2.138-1.316.298-2.329.913-3.288 1.86-1.313 1.297.127 3.365 1.81 2.642M116.897 26.05c1.097.18 2.102.128 2.952-.676.685-.651.755-2.063-.215-2.546-.677-.337-1.21-.485-1.958-.357-.508.087-.96.314-1.418.54-.614.303-1.023 1.083-.85 1.764.19.749.755 1.155 1.489 1.276M119.652 43.747c.074-.044.152-.078.226-.12a1.15 1.15 0 00.24-.156c.225-.154.254-.176.091-.065-.331.082.124.022.113-.034l-.226.085c.16-.026.156-.031-.007-.015-.194-.073-.07.005.05.014.226.016.448.016.674-.015-.078.01-.403.014-.149.021.395.012.674-.102 1.027-.226.53-.184.868-.793.96-1.304.109-.61-.085-1.047-.427-1.54-.702-1.013-2.251-.964-3.232-.454-.875.456-1.626 1.29-1.612 2.325.01 1.088 1.192 2.134 2.272 1.484M97.77 57.86c.253-.396.468-.81.458-1.294-.021-.988-.653-1.694-1.64-1.817-.488-.061-.91.112-1.334.327-1.126.574-1.415 2.104-.568 3.042.843.934 2.395.804 3.083-.259M147.049 23.978c.87-.037 1.75-.324 2.557-.656.932-.383 1.768-.905 2.071-1.93.293-.987-.254-1.87-1.164-2.249-.907-.377-1.845-.04-2.66.4-.624.339-1.443.796-1.912 1.323-.483.542-.741 1.187-.476 1.91.229.622.867 1.232 1.584 1.202M113.422 15.967c.046.022.095.043.144.064 1.877.83 3.33-1.866 2.085-3.245-1.435-1.591-3.602-.114-3.44 1.748.008.052.011.105.015.157.05.552.638 1.206 1.185 1.31l.155.03c1.831.351 3.521-1.655 2.085-3.245-1.238-1.37-4.078-.22-3.44 1.748.234.715.509 1.125 1.21 1.433M14.418 76.095c-1.47-.053-3.249.313-4.13 1.598-.71 1.028-.145 2.652 1.079 2.976 1.499.398 3.08-.437 4.166-1.436 1.132-1.042.466-3.08-1.115-3.138M38.107 74.542c-1.055.491-2.303 1-3.09 1.883-.642.722-.826 1.756-.127 2.53.706.783 1.743.698 2.53.128.959-.694 1.587-1.88 2.187-2.88.589-.99-.455-2.148-1.5-1.66M19.982 52.992c-.512-.772-1.313-1.337-2.107-1.797-.832-.48-2.042-.335-2.557.566-.173.304-.265.549-.286.9-.063.998.762 1.89 1.753 1.942.914.047 1.923.047 2.77-.327.434-.19.702-.867.427-1.284M33.69 35.75c-.306-.162-.54-.393-.821-.585-.367-.249-.84-.447-1.242-.606-1.224-.484-2.561.591-2.625 1.82-.063 1.244 1.157 2.408 2.427 2.076.41-.108.907-.26 1.295-.459.3-.155.557-.354.875-.478.705-.273.74-1.418.091-1.767M59.221 17.675c-.769-.156-1.468-.411-2.067-.64-1.253-.478-2.501-.055-3.239 1.038-.38.565-.36 1.563.173 2.047.483.44.931.785 1.605.847.667.061 1.323-.152 1.866-.524a12.67 12.67 0 011.8-1.054c.684-.32.673-1.55-.138-1.714M42.242 20.012a4.105 4.105 0 00-1.46-.422c-.844-.083-1.786.57-2.008 1.391-.243.898.088 1.744.833 2.29.275.204.56.363.896.46.994.29 2.046-.162 2.487-1.103.391-.844.183-2.167-.748-2.616M129.844 28.7l.13-.272c.734-1.547-.554-2.975-2.17-2.401l-.282.1c-2.928 1.04.981 5.4 2.322 2.574M110.307 52.089c.712.673 1.527 1.654 2.603 1.609.505-.021.91-.158 1.246-.553.282-.336.483-.855.342-1.3-.212-.652-.582-1.144-1.164-1.51-.339-.211-.73-.364-1.087-.542-.684-.342-1.443-.306-1.965.309-.451.534-.526 1.468.025 1.987"/></g></svg>