<svg width="152mm" height="90mm" viewBox="0 0 152 90" xmlns="http://www.w3.org/2000/svg"><g fill="#fff"><path d="M88.87 74.863l-1.083-.032c.092-3.256-.9-6.22-2.65-7.927-1.305-1.266-2.987-1.852-5-1.746-2.828.155-6.781 1.962-8.157 4.41-.707 1.256-.7 2.575.023 3.926l-.954.512c-.896-1.676-.9-3.394-.013-4.97 1.601-2.844 5.94-4.788 9.042-4.957 2.326-.13 4.284.56 5.815 2.053 1.993 1.94 3.08 5.122 2.977 8.731"/><path d="M96.9 74.207l-1.07-.18c.575-3.415-2.035-6.749-4.134-9.426-.293-.37-.575-.734-.84-1.08-3.2-4.208-6.501-4.385-12.258-3.2-3.312.681-12.11 4.64-14.124 9.219-.61 1.39-.541 2.674.211 3.933l-.93.554c-.932-1.556-1.024-3.214-.273-4.921 2.121-4.823 10.953-9.035 14.898-9.846 6.077-1.253 9.806-1.038 13.337 3.605l.829 1.065c2.233 2.847 5.01 6.393 4.353 10.277"/><path d="M103.482 77.075L102.4 77c.314-4.77-.942-10.407-3.277-14.715-3.475-6.42-6.558-9.447-14.76-9.179-8.16.25-27.154 2.942-27.27 22.472l-1.083-.007c.086-14.414 10.408-22.997 28.32-23.548 8.69-.25 12.133 3.073 15.745 9.747 2.427 4.477 3.73 10.34 3.408 15.304"/><path d="M111.91 79.714c-1.93-8.63-5.937-16.85-10.72-21.996-6.347-6.823-12.687-8.851-21.884-6.996-1.196.24-2.494.473-3.852.713-6.247 1.115-14.024 2.501-18.551 6.191-5.695 4.64-9.04 12.168-8.944 20.137l-1.083.01c-.099-8.293 3.393-16.14 9.343-20.986 4.745-3.867 12.674-5.282 19.045-6.417 1.35-.24 2.64-.47 3.828-.71 9.62-1.936 16.252.184 22.89 7.32 4.911 5.282 9.018 13.692 10.983 22.497l-1.055.237"/><path d="M117.805 79.848c-.642-1.207-.963-2.784-1.27-4.311-.279-1.394-.572-2.837-1.1-3.98-.816-1.763-1.941-3.552-3.028-5.284-.645-1.03-1.312-2.096-1.901-3.133-3.418-6.011-9.13-14.206-16.951-19.095-5.002-3.127-12.891-3.2-21.104-.194-.866.317-1.745.63-2.628.945-7.52 2.674-15.294 5.443-19.55 12.266l-.522.836c-4.015 6.42-8.566 13.698-8.367 21.318l-1.083.028c-.207-7.948 4.436-15.37 8.532-21.921l.521-.833c4.457-7.147 12.412-9.976 20.105-12.715a307.28 307.28 0 002.62-.941c8.524-3.12 16.766-3.01 22.051.293 8.012 5.006 13.84 13.356 17.314 19.477.579 1.02 1.242 2.074 1.88 3.094 1.105 1.76 2.248 3.58 3.094 5.4.583 1.264.886 2.767 1.179 4.224.307 1.517.596 2.952 1.164 4.018l-.956.508"/><path d="M124.885 83.305c-.328-.265-.571-1.076-1.53-5.108-.325-1.365-.629-2.657-.833-3.32-.54-1.764-.939-3.5-1.327-5.179-.84-3.658-1.633-7.115-3.75-10.488-8.325-13.264-15.706-20.735-22.564-22.836-6.773-2.076-17.746-.706-25.086 1.72-10.986 3.633-21.423 7.661-28.38 16.943-2.407 3.21-3.6 7.094-4.615 10.798-.98 3.57-2.59 10.249-2.356 14.828l-1.082.056c-.24-4.73 1.397-11.536 2.393-15.173 1.044-3.803 2.273-7.796 4.793-11.158 7.14-9.525 18.196-13.78 28.908-17.321 7.503-2.48 18.754-3.87 25.74-1.729 7.118 2.182 14.696 9.803 23.166 23.297 2.212 3.528 3.027 7.07 3.888 10.82.384 1.661.78 3.38 1.305 5.108.215.695.526 2 .854 3.387.399 1.682 1.005 4.226 1.224 4.586l-.748.769"/><path d="M129.817 82.3c-1.037-3.613-1.845-7.504-2.706-11.624-1.002-4.816-2.039-9.794-3.468-14.288-5.037-15.879-13.709-25.96-25.763-29.965-9.783-3.249-23.38 2.668-33.308 6.988-.857.373-1.686.734-2.482 1.075-.814.349-1.674.71-2.568 1.086-8.437 3.543-19.992 8.396-23.771 16.233-3.758 7.793-8.17 20.627-8.98 30.392l-1.078-.091c.82-9.9 5.283-22.892 9.083-30.77 3.957-8.207 15.73-13.152 24.327-16.762.891-.375 1.75-.735 2.56-1.083.794-.34 1.621-.7 2.477-1.072 10.088-4.39 23.905-10.403 34.082-7.023 12.4 4.12 21.304 14.436 26.455 30.664 1.443 4.544 2.487 9.553 3.496 14.397.854 4.1 1.662 7.97 2.685 11.546l-1.041.297"/><path d="M134.548 84.787l-.145-.999c-1.534-10.48-2.988-20.38-6.766-30.663l-.6-1.644c-1.898-5.218-3.686-10.147-7.362-14.487-3.79-4.477-7.8-7.661-12.27-11.067l-.205-.156c-4.29-3.27-7.387-5.63-12.947-5.906-6.413-.32-12.724 1.255-18.824 2.776l-2 .496C60.3 26.362 42.319 30.78 31.743 42.875c-.578.662-1.21 1.339-1.857 2.034-2.037 2.187-4.143 4.452-5.281 6.886-.73 1.563-.988 3.432-1.237 5.239-.177 1.277-.36 2.6-.707 3.824-.434 1.53-.96 3.171-1.516 4.903-1.759 5.486-3.752 11.702-3.504 16.729l-1.082.053c-.257-5.225 1.769-11.54 3.555-17.113.553-1.725 1.076-3.355 1.506-4.869.327-1.15.496-2.377.675-3.676.261-1.887.53-3.838 1.328-5.545 1.21-2.593 3.377-4.918 5.471-7.169a86.943 86.943 0 001.834-2.008C41.73 29.81 59.902 25.345 73.171 22.086l1.995-.495c6.18-1.54 12.558-3.13 19.14-2.808 5.895.292 9.106 2.74 13.55 6.126l.205.156c4.523 3.446 8.58 6.67 12.44 11.23 3.799 4.487 5.622 9.506 7.552 14.815l.6 1.64c3.817 10.39 5.277 20.346 6.823 30.883l.144.998-1.072.156"/><path d="M143.702 85.605c-1.936-6.06-3.598-12.478-5.203-18.68-2.156-8.336-4.385-16.954-7.36-25.052-4.137-11.278-16.319-22.473-28.334-26.037-16.15-4.794-29.244-4.537-43.78.86-12.66 4.7-26.055 13.239-37.717 24.042C10.122 51.1 8.871 66.248 8.51 82.165l-1.083-.024c.368-16.161 1.65-31.546 13.146-42.197C32.335 29.046 45.858 20.43 58.649 15.68c14.772-5.485 28.07-5.75 44.463-.884 12.312 3.654 24.8 15.133 29.047 26.703 2.992 8.146 5.225 16.793 7.391 25.154 1.598 6.191 3.256 12.587 5.182 18.62l-1.03.331"/><path d="M149.95 87.52c-1.136-2.113-1.206-4.889-1.274-7.57-.028-1.136-.052-2.208-.158-3.214-.448-4.297-1.588-8.625-2.688-12.813a347.4 347.4 0 01-1.573-6.191c-1.906-7.698-3.874-15.66-8.288-22.189-1.524-2.255-2.44-4.602-3.326-6.872-.466-1.2-.95-2.44-1.517-3.652-1.743-3.716-5.574-7.97-7.701-10.175-8.823-9.138-23.393-11.553-29.246-12.167-4.275-.448-8.572.118-12.724.665-.974.129-1.947.257-2.92.373-2.068.246-4.174.336-6.21.423-3.245.14-6.601.284-9.777 1.073-9.28 2.301-16.631 7.73-22 12.202-2.918 2.43-5.552 5.241-8.1 7.96-3.41 3.64-6.938 7.403-11.213 10.334-4.387 3.008-7.731 5.731-10.843 10.002-2.478 3.405-3.117 7.246-3.794 11.31-.268 1.613-.545 3.278-.945 4.915-.618 2.522-.849 5.485-1.072 8.353-.337 4.315-.685 8.778-2.338 12.104l-.97-.48c1.56-3.14 1.9-7.496 2.228-11.705.227-2.914.461-5.923 1.1-8.53.39-1.594.665-3.242.93-4.833.667-4.011 1.357-8.16 3.985-11.769 3.193-4.384 6.749-7.273 11.107-10.26 4.178-2.864 7.664-6.584 11.036-10.182 2.569-2.742 5.227-5.577 8.196-8.051 5.458-4.546 12.939-10.066 22.432-12.422 3.282-.814 6.693-.96 9.993-1.102 2.015-.086 4.1-.175 6.127-.417.968-.116 1.937-.243 2.907-.37 4.215-.557 8.576-1.13 12.978-.67 5.973.627 20.839 3.097 29.912 12.492 2.177 2.253 6.096 6.61 7.903 10.468.582 1.245 1.072 2.502 1.545 3.717.903 2.317 1.757 4.506 3.213 6.66 4.523 6.688 6.516 14.745 8.442 22.538a323.166 323.166 0 001.57 6.174c1.112 4.225 2.258 8.596 2.717 12.974.11 1.048.137 2.191.166 3.299.063 2.557.127 5.2 1.143 7.087l-.953.512"/></g></svg>