<?xml version="1.0" encoding="UTF-8" standalone="no"?>
<!-- Created with Inkscape (http://www.inkscape.org/) -->

<svg
   width="29.844999mm"
   height="30.617643mm"
   viewBox="0 0 29.844999 30.617643"
   version="1.1"
   id="svg5"
   inkscape:version="1.1.2 (b8e25be833, 2022-02-05)"
   sodipodi:docname="InDesign.svg"
   xmlns:inkscape="http://www.inkscape.org/namespaces/inkscape"
   xmlns:sodipodi="http://sodipodi.sourceforge.net/DTD/sodipodi-0.dtd"
   xmlns="http://www.w3.org/2000/svg"
   xmlns:svg="http://www.w3.org/2000/svg">
  <sodipodi:namedview
     id="namedview7"
     pagecolor="#ffffff"
     bordercolor="#666666"
     borderopacity="1.0"
     inkscape:pageshadow="2"
     inkscape:pageopacity="0.0"
     inkscape:pagecheckerboard="0"
     inkscape:document-units="mm"
     showgrid="false"
     fit-margin-top="0"
     fit-margin-left="0"
     fit-margin-right="0"
     fit-margin-bottom="0"
     inkscape:zoom="2.3150307"
     inkscape:cx="88.335762"
     inkscape:cy="73.649132"
     inkscape:window-width="1920"
     inkscape:window-height="1001"
     inkscape:window-x="-9"
     inkscape:window-y="-9"
     inkscape:window-maximized="1"
     inkscape:current-layer="layer1" />
  <defs
     id="defs2" />
  <g
     inkscape:label="Layer 1"
     inkscape:groupmode="layer"
     id="layer1"
     transform="translate(-19.605864,-15.694446)">
    <g
       id="vlpa"
       transform="matrix(0.26458333,0,0,0.26458333,2.4344059,2.1254335)"
       style="fill:#ffffff">
		<g
   id="vlpb"
   style="fill:#ffffff">
			<path
   class="st1"
   d="m 87.2,61.2 v 103 c 0,1.1 -0.5,1.6 -1.4,1.6 H 66.2 c -0.9,0 -1.3,-0.5 -1.3,-1.6 v -103 c 0,-0.9 0.5,-1.3 1.4,-1.3 h 19.5 c 0.6,-0.1 1.2,0.3 1.3,1 0.1,0.1 0.1,0.2 0.1,0.3 z"
   id="path848"
   style="fill:#ffffff" />

			<path
   class="st1"
   d="m 145,167 c -7.4,0.1 -14.8,-1.4 -21.5,-4.5 -6.3,-2.9 -11.5,-7.7 -15.1,-13.6 -3.7,-6.1 -5.5,-13.7 -5.5,-22.8 -0.1,-7.4 1.8,-14.7 5.5,-21.1 3.8,-6.5 9.3,-11.9 15.9,-15.5 7,-3.9 15.4,-5.8 25.3,-5.8 0.5,0 1.2,0 2.1,0.1 0.9,0.1 1.9,0.1 3.1,0.2 V 52.4 c 0,-0.7 0.3,-1.1 1,-1.1 h 20.3 c 0.5,-0.1 0.9,0.3 1,0.7 v 0.2 95.2 c 0,1.8 0.1,3.8 0.2,6 0.2,2.1 0.3,4.1 0.4,5.8 0,0.7 -0.3,1.3 -1,1.6 -5.2,2.2 -10.7,3.8 -16.3,4.8 -5,0.9 -10.2,1.4 -15.4,1.4 z m 9.8,-20 v -44 c -0.9,-0.2 -1.8,-0.4 -2.7,-0.5 -1.1,-0.1 -2.2,-0.2 -3.3,-0.2 -3.9,0 -7.8,0.8 -11.3,2.6 -3.4,1.7 -6.3,4.2 -8.5,7.4 -2.2,3.2 -3.3,7.5 -3.3,12.7 -0.1,3.5 0.5,7 1.7,10.3 1,2.7 2.5,5.1 4.5,7.1 1.9,1.8 4.2,3.2 6.8,4 2.7,0.9 5.5,1.3 8.3,1.3 1.5,0 2.9,-0.1 4.2,-0.2 1.3,0.1 2.5,-0.1 3.6,-0.5 z"
   id="path850"
   style="fill:#ffffff" />

		</g>

	</g>
  </g>
  <style
     type="text/css"
     id="style844">
	.st0{fill:#49021F;}
	.st1{fill:#FF3366;}
</style>
</svg>
