<svg width="763.333" height="126.667" viewBox="0 0 484.717 80.433" xmlns="http://www.w3.org/2000/svg"><g fill="#fff" fill-rule="evenodd"><path d="M249.925 0h9.076v80.433h-9.076zm-75.141 8.467h9.234v11.165c0 10.478.053 11.113.502 10.98.291-.106 1.667-.476 3.07-.873 1.666-.45 3.677-.74 5.82-.873 2.435-.106 3.863-.026 5.663.318 1.534.29 3.36.926 4.974 1.72 1.402.687 3.254 1.851 4.127 2.619.847.74 2.196 2.302 2.964 3.466.793 1.164 1.772 3.016 2.196 4.154.45 1.111 1.005 3.201 1.27 4.656.317 1.905.396 3.546.29 6.139-.079 1.931-.37 4.339-.634 5.344-.239 1.006-.874 2.726-1.376 3.81-.503 1.085-1.508 2.752-2.223 3.678-.688.926-2.09 2.302-3.095 3.07-.98.766-2.778 1.825-3.943 2.354-1.164.556-3.095 1.244-4.26 1.561-1.825.503-2.99.582-8.228.609-4.948.026-6.562-.08-8.52-.503a107.952 107.952 0 01-4.841-1.217c-1.323-.37-2.488-.794-2.593-.9-.106-.106-.238-13.917-.291-30.718zm11.51 30.11l-2.118.74v23.469c4.445 1.164 5.398 1.243 8.361 1.164 2.91-.08 3.863-.212 5.266-.741.926-.37 2.222-1.058 2.83-1.561.636-.476 1.535-1.376 2.011-1.984.477-.609 1.165-1.879 1.509-2.805.37-.926.793-2.699.952-3.942.238-1.694.238-2.858-.026-4.657a14.457 14.457 0 00-1.323-4.445c-.53-1.138-1.456-2.54-2.038-3.122-.582-.582-1.64-1.402-2.354-1.8-.688-.423-2.038-.952-2.99-1.19-.926-.264-2.593-.45-3.678-.423-1.085.026-2.514.159-3.122.29-.635.133-2.09.583-3.28 1.006zM24.42 11.296h9.075v25.665h24.421v8.467h-24.42v27.649H24.42V45.429H0v-8.467h24.421zM121.84 28.496h9.076v16.721c0 9.208-.106 18.548-.423 24.792l-2.276.688c-1.243.37-3.863.952-5.82 1.296-2.99.503-4.34.556-8.653.45-3.995-.106-5.609-.265-7.382-.714-1.27-.344-3.44-1.165-4.841-1.853-1.482-.74-3.255-1.905-4.26-2.778-.926-.846-2.25-2.354-2.884-3.333-.662-1.006-1.535-2.593-1.905-3.52-.37-.925-.926-2.777-1.19-4.074-.371-1.905-.45-3.307-.345-6.641.133-3.201.318-4.763.768-6.35.344-1.164 1.137-3.07 1.746-4.233.608-1.165 1.825-2.937 2.725-3.916.926-1.006 2.434-2.329 3.36-2.964.926-.608 2.46-1.428 3.413-1.799.926-.37 2.62-.873 3.757-1.084 1.138-.212 3.255-.397 4.684-.397 1.455 0 3.519.211 4.63.423 1.085.238 2.804.82 3.836 1.296 1.006.45 1.879.847 1.905.82.027 0 .08-.634.08-1.402zM106.39 38.894c-.767.423-1.879 1.296-2.487 1.958-.609.661-1.429 1.825-1.8 2.619-.396.767-.899 2.196-1.137 3.175-.238.953-.423 2.699-.423 3.863 0 1.164.132 2.884.29 3.81.186.926.662 2.46 1.112 3.387.53 1.11 1.376 2.249 2.46 3.254 1.059.979 2.302 1.8 3.387 2.223 1.323.529 2.381.687 5.107.82 1.931.08 4.365-.027 5.662-.212 1.243-.185 2.408-.423 2.593-.53.211-.131.37-3.81.502-11.694l.186-11.483c-2.329-1.27-3.625-1.852-4.419-2.116-.767-.291-2.566-.556-3.969-.609-1.746-.08-3.042.027-4.127.344-.847.238-2.17.767-2.937 1.19zm296.333-10.398h9.075v14.181c0 7.805-.079 17.145-.423 27.332l-2.275.688c-1.244.37-3.757.952-5.61 1.243-2.354.424-4.603.582-7.646.582-2.408 0-5.186-.132-6.191-.29-1.006-.186-2.99-.689-4.392-1.138-1.508-.477-3.466-1.403-4.683-2.196-1.191-.768-2.831-2.117-3.678-3.043-.82-.9-1.984-2.487-2.54-3.493-.556-1.005-1.323-2.857-1.693-4.074-.556-1.773-.715-3.149-.847-6.35-.08-2.567 0-4.842.212-6.086.185-1.085.661-2.91 1.058-4.074.37-1.164 1.243-3.017 1.931-4.101.662-1.085 2.09-2.805 3.175-3.81 1.217-1.112 2.805-2.25 4.101-2.884 1.165-.556 2.858-1.244 3.81-1.508.926-.239 3.228-.53 5.107-.609 2.513-.106 3.969 0 5.53.318 1.19.264 2.963.846 3.995 1.322 1.005.45 1.878.847 1.905.82.053 0 .08-.634.08-1.402zm-15.451 10.398c-.768.423-1.879 1.296-2.487 1.958-.609.661-1.403 1.825-1.8 2.619-.397.767-.9 2.196-1.137 3.175-.238.953-.424 2.831-.424 4.154s.186 3.201.424 4.154c.238.979.688 2.302 1.032 2.963.343.662 1.217 1.826 1.931 2.567.714.767 1.879 1.667 2.566 2.01.715.371 1.985.874 2.858 1.112.979.29 2.593.45 4.471.45 1.588 0 3.837-.133 4.948-.291 1.138-.16 2.223-.397 2.381-.503.238-.132.37-3.546.45-11.721l.08-11.562c-2.858-1.456-4.445-2.064-5.398-2.302-.926-.238-2.513-.424-3.545-.397-1.006 0-2.54.211-3.387.423-.873.238-2.196.767-2.963 1.19zm-69.745-9.975c1.64.08 3.731.344 4.684.582.926.238 2.46.794 3.386 1.244.953.423 2.487 1.349 3.413 2.063.953.715 2.276 2.038 2.964 2.937.688.9 1.667 2.54 2.196 3.625.529 1.085 1.217 2.99 1.534 4.233.318 1.244.688 3.757.98 8.89h-31.38l.185 1.059c.08.582.423 1.825.688 2.751.29.926 1.032 2.382 1.614 3.202.582.82 1.455 1.799 1.905 2.143.476.344 1.429.926 2.143 1.296.688.344 1.905.794 2.699 1.006.793.211 2.91.397 4.815.397 1.879 0 4.577-.186 5.98-.424 1.402-.238 3.386-.714 4.392-1.032 1.005-.317 2.328-.82 2.91-1.11.582-.292 1.19-.556 1.35-.556.185 0 .29 1.614.29 8.466l-1.56.715c-.874.397-2.673 1.032-4.049 1.428-1.375.37-3.889.847-5.609 1.032-2.355.238-3.942.238-6.403 0-1.799-.185-4.418-.661-5.82-1.058-1.403-.397-3.44-1.19-4.498-1.773-1.085-.582-2.91-1.931-4.075-3.016-1.19-1.085-2.672-2.858-3.36-3.942-.688-1.085-1.535-2.937-1.932-4.101-.397-1.165-.873-3.202-1.058-4.498-.212-1.456-.265-3.493-.159-5.08.08-1.482.424-3.704.741-4.948.318-1.244 1.085-3.28 1.693-4.524.609-1.244 1.747-3.017 2.488-3.943.767-.926 2.275-2.354 3.36-3.175 1.085-.82 2.91-1.852 4.048-2.328a25.532 25.532 0 014.26-1.27c1.455-.265 3.201-.37 5.185-.291zm-6.217 10.107c-.847.503-2.038 1.482-2.673 2.17-.608.714-1.428 1.878-1.799 2.619-.37.74-.688 1.455-.688 1.614 0 .185 3.572.291 10.16.291h10.16c-.29-2.09-.555-3.122-.767-3.678-.238-.529-.926-1.534-1.534-2.196-.741-.82-1.64-1.402-2.673-1.799-.873-.291-2.46-.608-3.545-.688-1.27-.053-2.567.053-3.572.318-.847.238-2.223.846-3.07 1.349zm135.678-9.393h9.42l-.027 14.182c0 13.361.026 14.288.555 16.007.344 1.059.98 2.302 1.508 2.937.503.582 1.562 1.376 2.355 1.746.768.37 2.25.794 3.255.926 1.084.16 2.619.16 3.704 0 1.005-.132 2.487-.555 3.254-.926.794-.37 1.852-1.164 2.355-1.746.53-.635 1.19-1.878 1.508-2.937.53-1.72.556-2.646.556-30.189h9.287l-.053 15.32c-.027 14.499-.053 15.372-.582 16.986-.318.926-.98 2.328-1.482 3.096-.503.793-1.376 1.878-1.984 2.46-.582.582-1.852 1.508-2.779 2.064-.926.556-2.725 1.323-3.968 1.72-1.429.45-3.334.794-5.107.926-1.587.08-4.127.08-5.688-.027-1.773-.106-3.704-.45-5.107-.9a23.257 23.257 0 01-3.995-1.72c-.926-.555-2.17-1.48-2.778-2.063-.582-.582-1.482-1.667-1.984-2.46-.477-.768-1.138-2.17-1.456-3.096-.555-1.588-.582-2.567-.661-16.986z"/></g></svg>