<svg height="227.571" viewBox="0 0 336 227.571" width="336" xmlns="http://www.w3.org/2000/svg"><g><path d="M160.128 83.985l21.036-12.168L201.9 83.985l-20.736 11.974-21.036-11.688z" fill="#f2f2f2"/><path d="M97 47.918L181.164.115l62.625 35.6-20.818 36.101-41.807-23.898-63.113 35.825z" fill="#fff" stroke="#fff" stroke-width=".2"/><path d="M160.128 131.789v-23.83l20.749-12L201.9 83.985v23.974l-20.736 11.91v23.845l-21.036 12.217zm0-47.804L139.1 72.071l-21.049 11.671V59.864l63.113-35.852v47.803zm62.556-24.12V47.918l21.105-12.203.211 23.899-21.029 12.202z" fill="#fff" stroke="#fff" stroke-width=".2"/><path d="M139.1 143.273V72.071l20.741-11.667.287 23.581 21.036 11.758v24.126l-21.036-11.197v47.259zm-31.726-65.746L97 71.316V47.919l21.051 11.947v23.878zm73.79-29.609V24.013l41.52 23.905.287 23.898z" fill="#f2f2f2" stroke="#f2f2f2" stroke-width=".2"/><path d="M23.607 181.097v45.572h-8.018v-45.572H0v-7.869h39.197v7.869z" fill="#fff"/><path d="M65.737 197.685c.7 2.412.72 5.693.649 6.016l-25.888 7.721c.221 1.923.137 1.145.762 2.486.627 1.402 1.369 2.594 2.297 3.449.918.853 1.951 1.52 3.061 1.995 1.11.433 2.32.651 3.502.646 1.672 0 3.24-.261 4.609-.87a16.905 16.905 0 004.088-2.31l4.684 4.959a19.356 19.356 0 01-5.983 3.913c-2.148.979-4.773 1.368-7.869 1.368-2.316 0-4.563-.39-6.669-1.368-2.107-.923-3.97-2.288-5.524-3.995-1.607-1.842-2.843-3.987-3.742-6.575-.947-2.586-1.393-5.542-1.393-8.866 0-3.467.409-6.491 1.294-9.081.885-2.588 2.067-4.717 3.584-6.513 1.55-1.747 3.405-3.095 5.54-3.983 2.163-.939 4.579-1.402 7.167-1.402 2.839 0 5.304.553 7.433 1.613 2.135 1.082 3.89 2.524 5.259 4.369 1.437 1.846 2.453 3.922 3.139 6.428zm-7.517 1.758c-.077-1.316-1.044-2.976-1.848-4.048-.677-.952-1.727-1.776-2.83-2.191-1.181-.457-2.768-.662-4.19-.588-2.629.103-5.541.98-7.017 3.033-1.476 2.054-1.895 5.427-1.838 9.091zm36.608 26.835V203.56c0-4.119-.741-6.943-2.197-8.569-1.441-1.626-3.466-2.443-6.077-2.443-2.639 0-4.657.919-6.08 2.632-1.456 1.842-2.136 4.32-2.136 7.573v23.525h-7.875v-40.153h7.875v3.84c.984-1.478 2.432-2.623 4.242-3.436a14.067 14.067 0 015.821-1.254c4.702 0 8.255 1.514 10.658 4.541 2.415 2.982 3.638 7.466 3.638 13.447v23.015zm40.196-10.565c0 2.219-.41 4.072-1.239 5.632-.849 1.446-1.964 2.7-3.341 3.639-1.402.889-2.974 1.553-4.784 1.993-1.81.35-3.682.594-5.672.594-2.764 0-5.52-.549-8.219-1.51-2.748-.961-5.115-2.147-7.181-3.65l3.609-5.906c1.892 1.313 3.833 2.291 5.863 2.947 2.012.656 3.97.99 5.821.99 4.891 0 7.348-1.477 7.348-4.433 0-1.483-.816-2.786-2.458-3.692-1.66-.889-3.938-1.922-6.884-3.031-2.141-.813-3.943-1.646-5.423-2.492a14.33 14.33 0 01-3.685-2.75c-.926-.96-1.608-1.977-2.048-3.232-.373-1.151-.593-2.569-.593-4.124 0-1.839.333-3.395.997-4.729.646-1.378 1.61-2.571 2.843-3.436 1.186-.957 2.654-1.633 4.326-2.102 1.698-.445 3.543-.682 5.538-.682 2.515 0 4.972.421 7.37 1.233 2.331.813 4.451 1.886 6.226 3.198l-3.436 6.006c-1.626-1.115-3.288-1.986-4.985-2.581-1.698-.527-3.508-.796-5.431-.796-1.922 0-3.344.334-4.176 1.035-.885.683-1.304 1.56-1.304 2.651 0 .462.087.985.307 1.333.189.477.557.965 1.145 1.348.521.513 1.312.932 2.236 1.455a49.843 49.843 0 003.698 1.644c2.267.818 4.225 1.717 5.906 2.429 1.646.842 3.102 1.694 4.248 2.691a9.535 9.535 0 012.533 3.535c.585 1.312.845 2.941.845 4.793zm36.612-9.272c0 3.324-.444 6.298-1.401 8.92-.89 2.624-2.151 4.807-3.792 6.684-1.641 1.743-3.561 3.145-5.746 4.068a18.285 18.285 0 01-7.197 1.457c-2.515 0-4.877-.564-7.02-1.557-2.142-.979-3.991-2.324-5.579-4.237-1.554-1.779-2.825-3.96-3.679-6.576-.92-2.516-1.347-5.327-1.347-8.54 0-3.279.445-6.201 1.364-8.788.927-2.587 2.167-4.752 3.77-6.562 1.641-1.811 3.494-3.211 5.673-4.137 2.178-.941 4.499-1.436 7.073-1.436 2.516 0 4.914.494 7.109 1.48a17.828 17.828 0 015.692 4.187c1.589 1.796 2.839 3.97 3.732 6.521.908 2.552 1.348 5.454 1.348 8.516zm-7.977.219c0-4.099-.871-7.368-2.681-9.839-1.811-2.335-4.339-3.596-7.519-3.596-3.027 0-5.392 1.261-7.074 3.596-1.733 2.471-2.583 5.633-2.583 9.62 0 4.479.939 7.779 2.784 10.106 1.81 2.326 4.251 3.556 7.22 3.556 1.48 0 2.833-.366 4.087-1.103a11.651 11.651 0 003.132-2.832c.825-1.282 1.489-2.624 1.969-4.259.476-1.646.665-3.365.665-5.249zm33.369-11.778c-.895-.369-1.771-.745-2.695-1.021-.915-.278-2.046-.389-3.375-.389-2.511 0-4.433.853-5.813 2.622-1.356 1.704-2.056 4.321-2.056 7.653v22.923h-7.87v-40.103h7.87v3.841c.903-1.33 2.195-2.421 3.785-3.342 1.59-.854 3.382-1.328 5.376-1.328 1.625 0 2.974.166 4.043.438a8.264 8.264 0 012.73 1.239zM210.171 181.097v13.999h15.409v7.869h-15.409v23.704h-7.949v-53.442h34.468v7.87zm27.818 45.573v-51.555l7.87-4.137v55.691h-7.87zm47.994-20.229c0 3.324-.378 6.298-1.341 8.92-.948 2.624-2.207 4.807-3.832 6.684-1.627 1.743-3.514 3.145-5.675 4.068-2.268.926-4.594 1.457-7.219 1.457-2.585 0-4.931-.564-7.021-1.557-2.166-.979-4.025-2.324-5.579-4.237-1.555-1.779-2.83-3.96-3.747-6.576-.853-2.516-1.346-5.327-1.346-8.54 0-3.279.511-6.201 1.4-8.788.889-2.587 2.175-4.752 3.824-6.562 1.62-1.811 3.469-3.211 5.581-4.137a18.148 18.148 0 017.142-1.436c2.516 0 4.914.494 7.059 1.48a17.2 17.2 0 015.74 4.187c1.59 1.796 2.813 3.97 3.673 6.521.981 2.552 1.341 5.454 1.341 8.516zm-7.903.219c0-4.099-.944-7.368-2.688-9.839-1.877-2.335-4.337-3.596-7.517-3.596-3.028 0-5.409 1.261-7.142 3.596-1.685 2.471-2.535 5.633-2.535 9.62 0 4.479.891 7.779 2.804 10.106 1.779 2.326 4.25 3.556 7.234 3.556 1.452 0 2.818-.366 4.005-1.103 1.245-.737 2.254-1.681 3.205-2.832a16.746 16.746 0 001.978-4.259c.393-1.646.656-3.365.656-5.249zm46.763 20.01h-6.731l-5.423-20.229c-.452-1.527-.803-3.064-1.14-4.709-.396-1.623-.674-2.899-.961-3.86a131.268 131.268 0 01-.835 3.881c-.389 1.626-.812 3.251-1.148 4.797l-5.373 20.12h-6.776l-10.957-40.103h7.763l4.795 19.471a289.17 289.17 0 011.078 4.882c.368 1.646.629 2.959.917 3.938l.996-3.938a78.552 78.552 0 011.187-4.882l5.378-19.471h6.264l5.497 19.578c.389 1.566.73 3.142 1.132 4.774.403 1.646.719 2.959.943 3.938.282-.979.602-2.308.938-3.969.319-1.604.656-3.25 1.057-4.851l4.797-19.471H336z" fill="#fff"/></g></svg>